<svg width="1440" height="1024" viewBox="0 0 1440 1024" fill="none" xmlns="http://www.w3.org/2000/svg">
<rect width="1440" height="1024" fill="white"/>
<path d="M433.804 144.978C275.657 187.437 263.015 377.713 276.462 467.543C246.495 466.755 176.997 480.466 138.747 541.621C90.9348 618.066 90.3397 702.818 132.244 788.688C165.768 857.384 259.271 872.089 301.832 870.855C594.456 877.38 1191.94 885.454 1240.88 865.551C1302.06 840.671 1360.33 739.778 1309.96 602.472C1269.67 492.626 1155.58 481.265 1103.57 489.314C1119.03 440.274 1120.99 324.477 1005.08 253.612C889.177 182.747 783.869 247.789 745.704 289.169C707.632 223.414 591.951 102.519 433.804 144.978Z" fill="#F3F8FC"/>
<rect x="659" y="254" width="140" height="54" rx="27" fill="#2673DD"/>
<path d="M692.82 278.928H694.62V288H692.82V278.928ZM694.764 274.968V276.876H692.658V274.968H694.764ZM702.109 278.712C704.281 278.712 705.367 279.924 705.367 282.348V288H703.549V282.456C703.549 281.664 703.393 281.088 703.081 280.728C702.781 280.368 702.295 280.188 701.623 280.188C700.855 280.188 700.237 280.428 699.769 280.908C699.313 281.388 699.085 282.03 699.085 282.834V288H697.285V281.484C697.285 280.536 697.237 279.684 697.141 278.928H698.833L698.995 280.494C699.283 279.918 699.697 279.48 700.237 279.18C700.789 278.868 701.413 278.712 702.109 278.712ZM710.313 280.332V284.886C710.313 285.51 710.445 285.954 710.709 286.218C710.985 286.47 711.363 286.596 711.843 286.596C712.155 286.596 712.473 286.548 712.797 286.452V287.928C712.401 288.06 711.951 288.126 711.447 288.126C710.511 288.126 709.785 287.862 709.269 287.334C708.753 286.806 708.495 286.038 708.495 285.03V280.332H706.731V278.928H708.495V276.66L710.313 276.03V278.928H712.815V280.332H710.313ZM722.234 283.5H715.754C715.814 285.624 716.78 286.686 718.652 286.686C719.696 286.686 720.65 286.344 721.514 285.66L722.072 286.956C721.664 287.316 721.142 287.604 720.506 287.82C719.882 288.024 719.252 288.126 718.616 288.126C717.164 288.126 716.024 287.712 715.196 286.884C714.368 286.044 713.954 284.898 713.954 283.446C713.954 282.522 714.134 281.7 714.494 280.98C714.866 280.26 715.382 279.702 716.042 279.306C716.702 278.91 717.452 278.712 718.292 278.712C719.516 278.712 720.476 279.108 721.172 279.9C721.88 280.692 722.234 281.79 722.234 283.194V283.5ZM718.328 280.062C717.644 280.062 717.086 280.266 716.654 280.674C716.222 281.082 715.946 281.664 715.826 282.42H720.632C720.56 281.652 720.326 281.07 719.93 280.674C719.534 280.266 719 280.062 718.328 280.062ZM728.838 278.712C729.114 278.712 729.402 278.754 729.702 278.838L729.666 280.494C729.342 280.374 728.988 280.314 728.604 280.314C727.776 280.314 727.152 280.566 726.732 281.07C726.324 281.562 726.12 282.186 726.12 282.942V288H724.32V281.484C724.32 280.536 724.272 279.684 724.176 278.928H725.868L726.03 280.566C726.27 279.966 726.642 279.51 727.146 279.198C727.65 278.874 728.214 278.712 728.838 278.712ZM735.678 276.21C734.682 276.21 734.184 276.78 734.184 277.92V278.928H736.308V280.332H734.184V288H732.366V280.332H730.62V278.928H732.366V277.776C732.366 276.768 732.618 276 733.122 275.472C733.638 274.944 734.358 274.68 735.282 274.68C735.762 274.68 736.2 274.74 736.596 274.86V276.354C736.272 276.258 735.966 276.21 735.678 276.21ZM746.364 278.928V288H744.564V286.452C744.3 286.992 743.904 287.406 743.376 287.694C742.86 287.982 742.254 288.126 741.558 288.126C740.754 288.126 740.046 287.934 739.434 287.55C738.834 287.166 738.366 286.626 738.03 285.93C737.694 285.222 737.526 284.4 737.526 283.464C737.526 282.528 737.694 281.7 738.03 280.98C738.378 280.26 738.858 279.702 739.47 279.306C740.082 278.91 740.778 278.712 741.558 278.712C742.254 278.712 742.86 278.862 743.376 279.162C743.892 279.45 744.288 279.864 744.564 280.404V278.928H746.364ZM741.99 286.686C742.806 286.686 743.436 286.404 743.88 285.84C744.336 285.264 744.564 284.46 744.564 283.428C744.564 282.384 744.336 281.58 743.88 281.016C743.436 280.452 742.8 280.17 741.972 280.17C741.156 280.17 740.514 280.464 740.046 281.052C739.59 281.628 739.362 282.432 739.362 283.464C739.362 284.484 739.59 285.276 740.046 285.84C740.514 286.404 741.162 286.686 741.99 286.686ZM752.977 288.126C752.065 288.126 751.267 287.934 750.583 287.55C749.911 287.166 749.395 286.626 749.035 285.93C748.675 285.222 748.495 284.4 748.495 283.464C748.495 282.528 748.681 281.7 749.053 280.98C749.437 280.26 749.971 279.702 750.655 279.306C751.339 278.91 752.137 278.712 753.049 278.712C753.685 278.712 754.297 278.82 754.885 279.036C755.473 279.24 755.947 279.522 756.307 279.882L755.749 281.196C754.897 280.524 754.039 280.188 753.175 280.188C752.299 280.188 751.615 280.476 751.123 281.052C750.631 281.616 750.385 282.414 750.385 283.446C750.385 284.478 750.631 285.276 751.123 285.84C751.615 286.392 752.299 286.668 753.175 286.668C754.063 286.668 754.921 286.332 755.749 285.66L756.307 286.974C755.923 287.334 755.431 287.616 754.831 287.82C754.243 288.024 753.625 288.126 752.977 288.126ZM765.758 283.5H759.278C759.338 285.624 760.304 286.686 762.176 286.686C763.22 286.686 764.174 286.344 765.038 285.66L765.596 286.956C765.188 287.316 764.666 287.604 764.03 287.82C763.406 288.024 762.776 288.126 762.14 288.126C760.688 288.126 759.548 287.712 758.72 286.884C757.892 286.044 757.478 284.898 757.478 283.446C757.478 282.522 757.658 281.7 758.018 280.98C758.39 280.26 758.906 279.702 759.566 279.306C760.226 278.91 760.976 278.712 761.816 278.712C763.04 278.712 764 279.108 764.696 279.9C765.404 280.692 765.758 281.79 765.758 283.194V283.5ZM761.852 280.062C761.168 280.062 760.61 280.266 760.178 280.674C759.746 281.082 759.47 281.664 759.35 282.42H764.156C764.084 281.652 763.85 281.07 763.454 280.674C763.058 280.266 762.524 280.062 761.852 280.062Z" fill="white"/>
<path d="M729 358L731.887 353L726.113 353L729 358ZM728.5 308L728.5 353.5L729.5 353.5L729.5 308L728.5 308Z" fill="#2673DD"/>
<g filter="url(#filter0_d)">
<rect x="478" y="401" width="583" height="389" fill="#D4E6F6"/>
</g>
<g filter="url(#filter1_d)">
<rect x="458" y="378" width="583" height="389" fill="#D4E6F6"/>
</g>
<g filter="url(#filter2_d)">
<rect x="438" y="358" width="583" height="389" fill="#D4E6F6"/>
</g>
<path d="M352.168 637.949C352.456 636.957 352.96 636.197 353.68 635.669C354.4 635.125 355.288 634.853 356.344 634.853C357.8 634.853 358.944 635.373 359.776 636.413C360.592 637.437 361 638.869 361 640.709L361 648.461L343.912 648.461L343.912 640.949C343.912 639.189 344.312 637.805 345.112 636.797C345.896 635.789 346.984 635.285 348.376 635.285C349.272 635.285 350.056 635.525 350.728 636.005C351.384 636.469 351.864 637.117 352.168 637.949ZM351.112 645.437L351.112 641.453C351.112 639.309 350.312 638.237 348.712 638.237C347.912 638.237 347.312 638.501 346.912 639.029C346.512 639.557 346.312 640.365 346.312 641.453L346.312 645.437L351.112 645.437ZM358.6 641.045C358.6 639.925 358.4 639.109 358 638.597C357.6 638.069 356.968 637.805 356.104 637.805C355.224 637.805 354.576 638.069 354.16 638.597C353.744 639.109 353.536 639.925 353.536 641.045L353.536 645.437L358.6 645.437L358.6 641.045ZM348.88 621.066L361 621.066L361 623.994L359.128 623.994C359.8 624.378 360.312 624.89 360.664 625.53C361.016 626.17 361.192 626.906 361.192 627.738C361.192 630.698 359.528 632.178 356.2 632.178L348.88 632.178L348.88 629.202L356.224 629.202C357.104 629.202 357.752 629.026 358.168 628.674C358.584 628.306 358.792 627.746 358.792 626.994C358.792 626.114 358.504 625.41 357.928 624.882C357.352 624.354 356.584 624.09 355.624 624.09L348.88 624.09L348.88 621.066ZM361.192 613.369C361.192 615.561 360.68 617.305 359.656 618.601L357.544 617.761C358.504 616.465 358.984 614.985 358.984 613.321C358.984 612.601 358.864 612.049 358.624 611.665C358.384 611.265 358.048 611.065 357.616 611.065C357.248 611.065 356.96 611.201 356.752 611.473C356.528 611.745 356.336 612.209 356.176 612.865L355.72 614.881C355.24 617.089 354.112 618.193 352.336 618.193C351.6 618.193 350.952 617.985 350.392 617.569C349.816 617.153 349.368 616.569 349.048 615.817C348.728 615.065 348.568 614.193 348.568 613.201C348.568 612.337 348.704 611.505 348.976 610.705C349.232 609.905 349.608 609.201 350.104 608.593L352.144 609.481C351.248 610.697 350.8 611.945 350.8 613.225C350.8 613.913 350.928 614.449 351.184 614.833C351.44 615.217 351.792 615.409 352.24 615.409C352.592 615.409 352.872 615.297 353.08 615.073C353.288 614.833 353.464 614.433 353.608 613.873L354.064 611.809C354.336 610.609 354.76 609.737 355.336 609.193C355.896 608.633 356.632 608.353 357.544 608.353C358.664 608.353 359.552 608.801 360.208 609.697C360.864 610.593 361.192 611.817 361.192 613.369ZM348.88 605.786L348.88 602.81L361 602.81L361 605.786L348.88 605.786ZM343.384 602.642L346.336 602.642L346.336 605.978L343.384 605.978L343.384 602.642ZM348.568 592.592C348.568 589.696 350.232 588.248 353.56 588.248L361 588.248L361 591.248L353.704 591.248C352.744 591.248 352.048 591.432 351.616 591.8C351.168 592.168 350.944 592.736 350.944 593.504C350.944 594.416 351.24 595.152 351.832 595.712C352.408 596.272 353.176 596.552 354.136 596.552L361 596.552L361 599.528L352.312 599.528C351.032 599.528 349.888 599.592 348.88 599.72L348.88 596.912L350.872 596.696C350.136 596.28 349.568 595.72 349.168 595.016C348.768 594.296 348.568 593.488 348.568 592.592ZM355.096 574.459L355.096 582.811C356.392 582.747 357.352 582.427 357.976 581.851C358.584 581.259 358.888 580.387 358.888 579.235C358.888 577.907 358.456 576.675 357.592 575.539L359.656 574.675C360.12 575.251 360.496 575.963 360.784 576.811C361.056 577.643 361.192 578.491 361.192 579.355C361.192 581.339 360.632 582.899 359.512 584.035C358.392 585.171 356.856 585.739 354.904 585.739C353.672 585.739 352.576 585.491 351.616 584.995C350.656 584.499 349.912 583.803 349.384 582.907C348.84 582.011 348.568 580.995 348.568 579.859C348.568 578.195 349.112 576.883 350.2 575.923C351.272 574.947 352.752 574.459 354.64 574.459L355.096 574.459ZM350.728 579.787C350.728 580.587 350.968 581.243 351.448 581.755C351.912 582.251 352.592 582.571 353.488 582.715L353.488 577.075C352.576 577.171 351.888 577.451 351.424 577.915C350.96 578.363 350.728 578.987 350.728 579.787ZM361.192 567.479C361.192 569.671 360.68 571.415 359.656 572.711L357.544 571.871C358.504 570.575 358.984 569.095 358.984 567.431C358.984 566.711 358.864 566.159 358.624 565.775C358.384 565.375 358.048 565.175 357.616 565.175C357.248 565.175 356.96 565.311 356.752 565.583C356.528 565.855 356.336 566.319 356.176 566.975L355.72 568.991C355.24 571.199 354.112 572.303 352.336 572.303C351.6 572.303 350.952 572.095 350.392 571.679C349.816 571.263 349.368 570.679 349.048 569.927C348.728 569.175 348.568 568.303 348.568 567.311C348.568 566.447 348.704 565.615 348.976 564.815C349.232 564.015 349.608 563.311 350.104 562.703L352.144 563.591C351.248 564.807 350.8 566.055 350.8 567.335C350.8 568.023 350.928 568.559 351.184 568.943C351.44 569.327 351.792 569.519 352.24 569.519C352.592 569.519 352.872 569.407 353.08 569.183C353.288 568.943 353.464 568.543 353.608 567.983L354.064 565.919C354.336 564.719 354.76 563.847 355.336 563.303C355.896 562.743 356.632 562.463 357.544 562.463C358.664 562.463 359.552 562.911 360.208 563.807C360.864 564.703 361.192 565.927 361.192 567.479ZM361.192 555.455C361.192 557.647 360.68 559.391 359.656 560.687L357.544 559.847C358.504 558.551 358.984 557.071 358.984 555.407C358.984 554.687 358.864 554.135 358.624 553.751C358.384 553.351 358.048 553.151 357.616 553.151C357.248 553.151 356.96 553.287 356.752 553.559C356.528 553.831 356.336 554.295 356.176 554.951L355.72 556.967C355.24 559.175 354.112 560.279 352.336 560.279C351.6 560.279 350.952 560.071 350.392 559.655C349.816 559.239 349.368 558.655 349.048 557.903C348.728 557.151 348.568 556.279 348.568 555.287C348.568 554.423 348.704 553.591 348.976 552.791C349.232 551.991 349.608 551.287 350.104 550.679L352.144 551.567C351.248 552.783 350.8 554.031 350.8 555.311C350.8 555.999 350.928 556.535 351.184 556.919C351.44 557.303 351.792 557.495 352.24 557.495C352.592 557.495 352.872 557.383 353.08 557.159C353.288 556.919 353.464 556.519 353.608 555.959L354.064 553.895C354.336 552.695 354.76 551.823 355.336 551.279C355.896 550.719 356.632 550.439 357.544 550.439C358.664 550.439 359.552 550.887 360.208 551.783C360.864 552.679 361.192 553.903 361.192 555.455ZM343.336 529.694L361 529.694L361 532.646L359.056 532.646C359.728 533.014 360.256 533.542 360.64 534.23C361.008 534.918 361.192 535.702 361.192 536.582C361.192 537.622 360.928 538.55 360.4 539.366C359.872 540.182 359.128 540.822 358.168 541.286C357.192 541.734 356.08 541.958 354.832 541.958C353.584 541.958 352.488 541.734 351.544 541.286C350.6 540.838 349.872 540.206 349.36 539.39C348.832 538.574 348.568 537.638 348.568 536.582C348.568 535.718 348.752 534.95 349.12 534.278C349.472 533.59 349.976 533.062 350.632 532.694L343.336 532.694L343.336 529.694ZM358.84 535.79C358.84 534.798 358.496 534.03 357.808 533.486C357.12 532.926 356.144 532.646 354.88 532.646C353.616 532.646 352.64 532.918 351.952 533.462C351.264 534.006 350.92 534.774 350.92 535.766C350.92 536.774 351.264 537.558 351.952 538.118C352.624 538.662 353.584 538.934 354.832 538.934C356.096 538.934 357.08 538.662 357.784 538.118C358.488 537.558 358.84 536.782 358.84 535.79ZM361.192 520.931C361.192 522.163 360.936 523.251 360.424 524.195C359.912 525.123 359.184 525.843 358.24 526.355C357.28 526.851 356.16 527.099 354.88 527.099C353.6 527.099 352.488 526.851 351.544 526.355C350.584 525.843 349.848 525.123 349.336 524.195C348.824 523.251 348.568 522.163 348.568 520.931C348.568 519.715 348.824 518.643 349.336 517.715C349.848 516.787 350.584 516.075 351.544 515.579C352.488 515.067 353.6 514.811 354.88 514.811C356.16 514.811 357.28 515.067 358.24 515.579C359.184 516.075 359.912 516.787 360.424 517.715C360.936 518.643 361.192 519.715 361.192 520.931ZM358.84 520.955C358.84 519.931 358.512 519.155 357.856 518.627C357.184 518.083 356.192 517.811 354.88 517.811C353.584 517.811 352.6 518.083 351.928 518.627C351.24 519.171 350.896 519.939 350.896 520.931C350.896 521.939 351.24 522.715 351.928 523.259C352.6 523.803 353.584 524.075 354.88 524.075C356.192 524.075 357.184 523.811 357.856 523.283C358.512 522.739 358.84 521.963 358.84 520.955ZM348.568 497.919C348.568 496.543 348.984 495.519 349.816 494.847C350.632 494.175 351.88 493.839 353.56 493.839L361 493.839L361 496.839L353.656 496.839C352.696 496.839 352.008 496.999 351.592 497.319C351.16 497.623 350.944 498.135 350.944 498.855C350.944 499.687 351.24 500.343 351.832 500.823C352.408 501.287 353.208 501.519 354.232 501.519L361 501.519L361 504.519L353.656 504.519C352.712 504.519 352.024 504.687 351.592 505.023C351.16 505.343 350.944 505.855 350.944 506.559C350.944 507.391 351.24 508.047 351.832 508.527C352.408 509.007 353.208 509.247 354.232 509.247L361 509.247L361 512.223L352.312 512.223C351.032 512.223 349.888 512.287 348.88 512.415L348.88 509.607L350.8 509.391C350.08 509.039 349.528 508.535 349.144 507.879C348.76 507.207 348.568 506.439 348.568 505.575C348.568 503.719 349.336 502.511 350.872 501.951C350.152 501.567 349.592 501.023 349.192 500.319C348.776 499.599 348.568 498.799 348.568 497.919ZM348.88 479.046L361 479.046L361 481.998L359.056 481.998C359.728 482.366 360.256 482.894 360.64 483.582C361.008 484.27 361.192 485.054 361.192 485.934C361.192 486.99 360.936 487.926 360.424 488.742C359.912 489.558 359.184 490.19 358.24 490.638C357.296 491.086 356.2 491.31 354.952 491.31C353.704 491.31 352.6 491.086 351.64 490.638C350.664 490.174 349.912 489.534 349.384 488.718C348.84 487.902 348.568 486.974 348.568 485.934C348.568 485.054 348.76 484.27 349.144 483.582C349.512 482.894 350.032 482.366 350.704 481.998L348.88 481.998L348.88 479.046ZM358.84 485.118C358.84 484.126 358.496 483.358 357.808 482.814C357.12 482.27 356.152 481.998 354.904 481.998C353.624 481.998 352.64 482.27 351.952 482.814C351.264 483.358 350.92 484.134 350.92 485.142C350.92 486.134 351.28 486.91 352 487.47C352.704 488.014 353.688 488.286 354.952 488.286C356.2 488.286 357.16 488.014 357.832 487.47C358.504 486.91 358.84 486.126 358.84 485.118ZM348.88 475.778L348.88 472.802L361 472.802L361 475.778L348.88 475.778ZM343.384 472.634L346.336 472.634L346.336 475.97L343.384 475.97L343.384 472.634ZM348.568 462.584C348.568 459.688 350.232 458.24 353.56 458.24L361 458.24L361 461.24L353.704 461.24C352.744 461.24 352.048 461.424 351.616 461.792C351.168 462.16 350.944 462.728 350.944 463.496C350.944 464.408 351.24 465.144 351.832 465.704C352.408 466.264 353.176 466.544 354.136 466.544L361 466.544L361 469.52L352.312 469.52C351.032 469.52 349.888 469.584 348.88 469.712L348.88 466.904L350.872 466.688C350.136 466.272 349.568 465.712 349.168 465.008C348.768 464.288 348.568 463.48 348.568 462.584Z" fill="black"/>
<rect x="665" y="451" width="129" height="80" rx="16" fill="#2673DD"/>
<path d="M703.259 488.712C704.039 488.712 704.735 488.91 705.347 489.306C705.959 489.702 706.433 490.26 706.769 490.98C707.117 491.7 707.291 492.528 707.291 493.464C707.291 494.4 707.123 495.222 706.787 495.93C706.451 496.626 705.977 497.166 705.365 497.55C704.753 497.934 704.051 498.126 703.259 498.126C702.563 498.126 701.951 497.982 701.423 497.694C700.907 497.394 700.517 496.968 700.253 496.416V501.888H698.453V491.484C698.453 490.536 698.405 489.684 698.309 488.928H700.001L700.181 490.602C700.421 490.002 700.811 489.54 701.351 489.216C701.891 488.88 702.527 488.712 703.259 488.712ZM702.845 496.686C703.661 496.686 704.297 496.404 704.753 495.84C705.209 495.276 705.437 494.484 705.437 493.464C705.437 492.432 705.209 491.628 704.753 491.052C704.297 490.464 703.661 490.17 702.845 490.17C702.005 490.17 701.363 490.452 700.919 491.016C700.475 491.58 700.253 492.384 700.253 493.428C700.253 494.472 700.475 495.276 700.919 495.84C701.375 496.404 702.017 496.686 702.845 496.686ZM713.94 488.712C714.216 488.712 714.504 488.754 714.804 488.838L714.768 490.494C714.444 490.374 714.09 490.314 713.706 490.314C712.878 490.314 712.254 490.566 711.834 491.07C711.426 491.562 711.222 492.186 711.222 492.942V498H709.422V491.484C709.422 490.536 709.374 489.684 709.278 488.928H710.97L711.132 490.566C711.372 489.966 711.744 489.51 712.248 489.198C712.752 488.874 713.316 488.712 713.94 488.712ZM719.92 498.126C719.032 498.126 718.252 497.934 717.58 497.55C716.908 497.166 716.386 496.62 716.014 495.912C715.654 495.204 715.474 494.376 715.474 493.428C715.474 492.48 715.654 491.652 716.014 490.944C716.386 490.224 716.908 489.672 717.58 489.288C718.252 488.904 719.032 488.712 719.92 488.712C720.796 488.712 721.57 488.904 722.242 489.288C722.914 489.672 723.43 490.224 723.79 490.944C724.162 491.652 724.348 492.48 724.348 493.428C724.348 494.376 724.162 495.204 723.79 495.912C723.43 496.62 722.914 497.166 722.242 497.55C721.57 497.934 720.796 498.126 719.92 498.126ZM719.902 496.686C720.742 496.686 721.384 496.41 721.828 495.858C722.272 495.306 722.494 494.496 722.494 493.428C722.494 492.384 722.266 491.58 721.81 491.016C721.366 490.452 720.736 490.17 719.92 490.17C719.092 490.17 718.45 490.452 717.994 491.016C717.538 491.58 717.31 492.384 717.31 493.428C717.31 494.496 717.532 495.306 717.976 495.858C718.432 496.41 719.074 496.686 719.902 496.686ZM730.415 498.126C729.503 498.126 728.705 497.934 728.021 497.55C727.349 497.166 726.833 496.626 726.473 495.93C726.113 495.222 725.933 494.4 725.933 493.464C725.933 492.528 726.119 491.7 726.491 490.98C726.875 490.26 727.409 489.702 728.093 489.306C728.777 488.91 729.575 488.712 730.487 488.712C731.123 488.712 731.735 488.82 732.323 489.036C732.911 489.24 733.385 489.522 733.745 489.882L733.187 491.196C732.335 490.524 731.477 490.188 730.613 490.188C729.737 490.188 729.053 490.476 728.561 491.052C728.069 491.616 727.823 492.414 727.823 493.446C727.823 494.478 728.069 495.276 728.561 495.84C729.053 496.392 729.737 496.668 730.613 496.668C731.501 496.668 732.359 496.332 733.187 495.66L733.745 496.974C733.361 497.334 732.869 497.616 732.269 497.82C731.681 498.024 731.063 498.126 730.415 498.126ZM743.195 493.5H736.715C736.775 495.624 737.741 496.686 739.613 496.686C740.657 496.686 741.611 496.344 742.475 495.66L743.033 496.956C742.625 497.316 742.103 497.604 741.467 497.82C740.843 498.024 740.213 498.126 739.577 498.126C738.125 498.126 736.985 497.712 736.157 496.884C735.329 496.044 734.915 494.898 734.915 493.446C734.915 492.522 735.095 491.7 735.455 490.98C735.827 490.26 736.343 489.702 737.003 489.306C737.663 488.91 738.413 488.712 739.253 488.712C740.477 488.712 741.437 489.108 742.133 489.9C742.841 490.692 743.195 491.79 743.195 493.194V493.5ZM739.289 490.062C738.605 490.062 738.047 490.266 737.615 490.674C737.183 491.082 736.907 491.664 736.787 492.42H741.593C741.521 491.652 741.287 491.07 740.891 490.674C740.495 490.266 739.961 490.062 739.289 490.062ZM748.449 498.126C746.865 498.126 745.617 497.742 744.705 496.974L745.245 495.66C746.193 496.38 747.279 496.74 748.503 496.74C749.127 496.74 749.601 496.638 749.925 496.434C750.249 496.218 750.411 495.918 750.411 495.534C750.411 495.21 750.297 494.958 750.069 494.778C749.853 494.586 749.481 494.424 748.953 494.292L747.441 493.932C746.649 493.764 746.043 493.47 745.623 493.05C745.215 492.618 745.011 492.084 745.011 491.448C745.011 490.632 745.335 489.972 745.983 489.468C746.643 488.964 747.513 488.712 748.593 488.712C749.241 488.712 749.853 488.814 750.429 489.018C751.017 489.222 751.515 489.51 751.923 489.882L751.365 491.16C750.489 490.464 749.565 490.116 748.593 490.116C748.005 490.116 747.549 490.23 747.225 490.458C746.901 490.674 746.739 490.98 746.739 491.376C746.739 491.688 746.841 491.94 747.045 492.132C747.249 492.324 747.573 492.474 748.017 492.582L749.565 492.96C750.429 493.152 751.065 493.458 751.473 493.878C751.893 494.286 752.103 494.82 752.103 495.48C752.103 496.296 751.773 496.944 751.113 497.424C750.465 497.892 749.577 498.126 748.449 498.126ZM757.414 498.126C755.83 498.126 754.582 497.742 753.67 496.974L754.21 495.66C755.158 496.38 756.244 496.74 757.468 496.74C758.092 496.74 758.566 496.638 758.89 496.434C759.214 496.218 759.376 495.918 759.376 495.534C759.376 495.21 759.262 494.958 759.034 494.778C758.818 494.586 758.446 494.424 757.918 494.292L756.406 493.932C755.614 493.764 755.008 493.47 754.588 493.05C754.18 492.618 753.976 492.084 753.976 491.448C753.976 490.632 754.3 489.972 754.948 489.468C755.608 488.964 756.478 488.712 757.558 488.712C758.206 488.712 758.818 488.814 759.394 489.018C759.982 489.222 760.48 489.51 760.888 489.882L760.33 491.16C759.454 490.464 758.53 490.116 757.558 490.116C756.97 490.116 756.514 490.23 756.19 490.458C755.866 490.674 755.704 490.98 755.704 491.376C755.704 491.688 755.806 491.94 756.01 492.132C756.214 492.324 756.538 492.474 756.982 492.582L758.53 492.96C759.394 493.152 760.03 493.458 760.438 493.878C760.858 494.286 761.068 494.82 761.068 495.48C761.068 496.296 760.738 496.944 760.078 497.424C759.43 497.892 758.542 498.126 757.414 498.126Z" fill="white"/>
<rect x="543" y="465" width="52" height="52" rx="26" stroke="#2673DD" stroke-width="2"/>
<rect x="866" y="467" width="48" height="48" rx="24" stroke="#2673DD" stroke-width="6"/>
<path d="M694.289 406.616C695.329 406.616 696.257 406.88 697.073 407.408C697.889 407.936 698.521 408.68 698.969 409.64C699.433 410.6 699.665 411.704 699.665 412.952C699.665 414.2 699.441 415.296 698.993 416.24C698.545 417.168 697.913 417.888 697.097 418.4C696.281 418.912 695.345 419.168 694.289 419.168C693.361 419.168 692.545 418.976 691.841 418.592C691.153 418.192 690.633 417.624 690.281 416.888V424.184H687.881V410.312C687.881 409.048 687.817 407.912 687.689 406.904H689.945L690.185 409.136C690.505 408.336 691.025 407.72 691.745 407.288C692.465 406.84 693.313 406.616 694.289 406.616ZM693.737 417.248C694.825 417.248 695.673 416.872 696.281 416.12C696.889 415.368 697.193 414.312 697.193 412.952C697.193 411.576 696.889 410.504 696.281 409.736C695.673 408.952 694.825 408.56 693.737 408.56C692.617 408.56 691.761 408.936 691.169 409.688C690.577 410.44 690.281 411.512 690.281 412.904C690.281 414.296 690.577 415.368 691.169 416.12C691.777 416.872 692.633 417.248 693.737 417.248ZM708.53 406.616C708.898 406.616 709.282 406.672 709.682 406.784L709.634 408.992C709.202 408.832 708.73 408.752 708.218 408.752C707.114 408.752 706.282 409.088 705.722 409.76C705.178 410.416 704.906 411.248 704.906 412.256V419H702.506V410.312C702.506 409.048 702.442 407.912 702.314 406.904H704.57L704.786 409.088C705.106 408.288 705.602 407.68 706.274 407.264C706.946 406.832 707.698 406.616 708.53 406.616ZM716.504 419.168C715.32 419.168 714.28 418.912 713.384 418.4C712.488 417.888 711.792 417.16 711.296 416.216C710.816 415.272 710.576 414.168 710.576 412.904C710.576 411.64 710.816 410.536 711.296 409.592C711.792 408.632 712.488 407.896 713.384 407.384C714.28 406.872 715.32 406.616 716.504 406.616C717.672 406.616 718.704 406.872 719.6 407.384C720.496 407.896 721.184 408.632 721.664 409.592C722.16 410.536 722.408 411.64 722.408 412.904C722.408 414.168 722.16 415.272 721.664 416.216C721.184 417.16 720.496 417.888 719.6 418.4C718.704 418.912 717.672 419.168 716.504 419.168ZM716.48 417.248C717.6 417.248 718.456 416.88 719.048 416.144C719.64 415.408 719.936 414.328 719.936 412.904C719.936 411.512 719.632 410.44 719.024 409.688C718.432 408.936 717.592 408.56 716.504 408.56C715.4 408.56 714.544 408.936 713.936 409.688C713.328 410.44 713.024 411.512 713.024 412.904C713.024 414.328 713.32 415.408 713.912 416.144C714.52 416.88 715.376 417.248 716.48 417.248ZM736.305 401.336V419H733.905V416.936C733.553 417.656 733.025 418.208 732.321 418.592C731.633 418.976 730.825 419.168 729.897 419.168C728.857 419.168 727.929 418.904 727.113 418.376C726.297 417.848 725.657 417.112 725.193 416.168C724.745 415.208 724.521 414.104 724.521 412.856C724.521 411.608 724.745 410.512 725.193 409.568C725.641 408.624 726.265 407.896 727.065 407.384C727.881 406.872 728.825 406.616 729.897 406.616C730.809 406.616 731.609 406.808 732.297 407.192C733.001 407.576 733.529 408.12 733.881 408.824V401.336H736.305ZM730.449 417.248C731.553 417.248 732.401 416.872 732.993 416.12C733.601 415.352 733.905 414.28 733.905 412.904C733.905 411.528 733.601 410.464 732.993 409.712C732.401 408.944 731.561 408.56 730.473 408.56C729.369 408.56 728.505 408.936 727.881 409.688C727.273 410.44 726.969 411.496 726.969 412.856C726.969 414.232 727.273 415.312 727.881 416.096C728.505 416.864 729.361 417.248 730.449 417.248ZM750.378 406.904V419H748.026V416.984C747.642 417.688 747.114 418.232 746.442 418.616C745.77 418.984 745.01 419.168 744.162 419.168C741.25 419.168 739.794 417.552 739.794 414.32V406.904H742.194V414.296C742.194 415.288 742.394 416.024 742.794 416.504C743.21 416.968 743.834 417.2 744.666 417.2C745.658 417.2 746.45 416.88 747.042 416.24C747.65 415.6 747.954 414.752 747.954 413.696V406.904H750.378ZM759.184 419.168C757.968 419.168 756.904 418.912 755.992 418.4C755.096 417.888 754.408 417.168 753.928 416.24C753.448 415.296 753.208 414.2 753.208 412.952C753.208 411.704 753.456 410.6 753.952 409.64C754.464 408.68 755.176 407.936 756.088 407.408C757 406.88 758.064 406.616 759.28 406.616C760.128 406.616 760.944 406.76 761.728 407.048C762.512 407.32 763.144 407.696 763.624 408.176L762.88 409.928C761.744 409.032 760.6 408.584 759.448 408.584C758.28 408.584 757.368 408.968 756.712 409.736C756.056 410.488 755.728 411.552 755.728 412.928C755.728 414.304 756.056 415.368 756.712 416.12C757.368 416.856 758.28 417.224 759.448 417.224C760.632 417.224 761.776 416.776 762.88 415.88L763.624 417.632C763.112 418.112 762.456 418.488 761.656 418.76C760.872 419.032 760.048 419.168 759.184 419.168ZM769.096 408.776V414.848C769.096 415.68 769.272 416.272 769.624 416.624C769.992 416.96 770.496 417.128 771.136 417.128C771.552 417.128 771.976 417.064 772.408 416.936V418.904C771.88 419.08 771.28 419.168 770.608 419.168C769.36 419.168 768.392 418.816 767.704 418.112C767.016 417.408 766.672 416.384 766.672 415.04V408.776H764.32V406.904H766.672V403.88L769.096 403.04V406.904H772.432V408.776H769.096Z" fill="#2673DD"/>
<path d="M665 491L660 488.113V493.887L665 491ZM596 491.5H660.5V490.5H596V491.5Z" fill="#2673DD"/>
<path d="M863 491L858 488.113V493.887L863 491ZM794 491.5H858.5V490.5H794V491.5Z" fill="#2673DD"/>
<path d="M638.5 574.5L641.387 569.5L635.613 569.5L638.5 574.5ZM697 552.5L697 553L697.5 553L697.5 552.5L697 552.5ZM638.5 552.5L638.5 552L638 552L638 552.5L638.5 552.5ZM696.5 518L696.5 552.5L697.5 552.5L697.5 518L696.5 518ZM697 552L638.5 552L638.5 553L697 553L697 552ZM638 552.5L638 570L639 570L639 552.5L638 552.5Z" fill="#2673DD"/>
<path d="M839.5 574.5L836.613 569.5L842.387 569.5L839.5 574.5ZM762 552.5L762 553L761.5 553L761.5 552.5L762 552.5ZM839.5 552.5L839.5 552L840 552L840 552.5L839.5 552.5ZM762.5 518L762.5 552.5L761.5 552.5L761.5 518L762.5 518ZM762 552L839.5 552L839.5 553L762 553L762 552ZM840 552.5L840 570L839 570L839 552.5L840 552.5Z" fill="#2673DD"/>
<ellipse cx="636" cy="654" rx="50" ry="18" fill="#2673DD"/>
<rect x="586" y="597" width="100" height="58" fill="#2673DD"/>
<ellipse cx="636" cy="595" rx="50" ry="18" fill="#6CA1E7"/>
<path d="M625.907 629.752V643H624.107V641.452C623.843 641.992 623.447 642.406 622.919 642.694C622.403 642.982 621.797 643.126 621.101 643.126C620.321 643.126 619.625 642.928 619.013 642.532C618.401 642.136 617.921 641.584 617.573 640.876C617.237 640.156 617.069 639.328 617.069 638.392C617.069 637.456 617.237 636.634 617.573 635.926C617.909 635.218 618.377 634.672 618.977 634.288C619.589 633.904 620.297 633.712 621.101 633.712C621.785 633.712 622.385 633.856 622.901 634.144C623.429 634.432 623.825 634.84 624.089 635.368V629.752H625.907ZM621.515 641.686C622.343 641.686 622.979 641.404 623.423 640.84C623.879 640.264 624.107 639.46 624.107 638.428C624.107 637.396 623.879 636.598 623.423 636.034C622.979 635.458 622.349 635.17 621.533 635.17C620.705 635.17 620.057 635.452 619.589 636.016C619.133 636.58 618.905 637.372 618.905 638.392C618.905 639.424 619.133 640.234 619.589 640.822C620.057 641.398 620.699 641.686 621.515 641.686ZM636.876 633.928V643H635.076V641.452C634.812 641.992 634.416 642.406 633.888 642.694C633.372 642.982 632.766 643.126 632.07 643.126C631.266 643.126 630.558 642.934 629.946 642.55C629.346 642.166 628.878 641.626 628.542 640.93C628.206 640.222 628.038 639.4 628.038 638.464C628.038 637.528 628.206 636.7 628.542 635.98C628.89 635.26 629.37 634.702 629.982 634.306C630.594 633.91 631.29 633.712 632.07 633.712C632.766 633.712 633.372 633.862 633.888 634.162C634.404 634.45 634.8 634.864 635.076 635.404V633.928H636.876ZM632.502 641.686C633.318 641.686 633.948 641.404 634.392 640.84C634.848 640.264 635.076 639.46 635.076 638.428C635.076 637.384 634.848 636.58 634.392 636.016C633.948 635.452 633.312 635.17 632.484 635.17C631.668 635.17 631.026 635.464 630.558 636.052C630.102 636.628 629.874 637.432 629.874 638.464C629.874 639.484 630.102 640.276 630.558 640.84C631.026 641.404 631.674 641.686 632.502 641.686ZM641.905 635.332V639.886C641.905 640.51 642.037 640.954 642.301 641.218C642.577 641.47 642.955 641.596 643.435 641.596C643.747 641.596 644.065 641.548 644.389 641.452V642.928C643.993 643.06 643.543 643.126 643.039 643.126C642.103 643.126 641.377 642.862 640.861 642.334C640.345 641.806 640.087 641.038 640.087 640.03V635.332H638.323V633.928H640.087V631.66L641.905 631.03V633.928H644.407V635.332H641.905ZM654.384 633.928V643H652.584V641.452C652.32 641.992 651.924 642.406 651.396 642.694C650.88 642.982 650.274 643.126 649.578 643.126C648.774 643.126 648.066 642.934 647.454 642.55C646.854 642.166 646.386 641.626 646.05 640.93C645.714 640.222 645.546 639.4 645.546 638.464C645.546 637.528 645.714 636.7 646.05 635.98C646.398 635.26 646.878 634.702 647.49 634.306C648.102 633.91 648.798 633.712 649.578 633.712C650.274 633.712 650.88 633.862 651.396 634.162C651.912 634.45 652.308 634.864 652.584 635.404V633.928H654.384ZM650.01 641.686C650.826 641.686 651.456 641.404 651.9 640.84C652.356 640.264 652.584 639.46 652.584 638.428C652.584 637.384 652.356 636.58 651.9 636.016C651.456 635.452 650.82 635.17 649.992 635.17C649.176 635.17 648.534 635.464 648.066 636.052C647.61 636.628 647.382 637.432 647.382 638.464C647.382 639.484 647.61 640.276 648.066 640.84C648.534 641.404 649.182 641.686 650.01 641.686Z" fill="white"/>
<path d="M805.294 692.928V702H803.53V700.488C803.242 701.016 802.846 701.424 802.342 701.712C801.838 701.988 801.268 702.126 800.632 702.126C798.448 702.126 797.356 700.914 797.356 698.49V692.928H799.156V698.472C799.156 699.216 799.306 699.768 799.606 700.128C799.918 700.476 800.386 700.65 801.01 700.65C801.754 700.65 802.348 700.41 802.792 699.93C803.248 699.45 803.476 698.814 803.476 698.022V692.928H805.294ZM811.125 702.126C809.541 702.126 808.293 701.742 807.381 700.974L807.921 699.66C808.869 700.38 809.955 700.74 811.179 700.74C811.803 700.74 812.277 700.638 812.601 700.434C812.925 700.218 813.087 699.918 813.087 699.534C813.087 699.21 812.973 698.958 812.745 698.778C812.529 698.586 812.157 698.424 811.629 698.292L810.117 697.932C809.325 697.764 808.719 697.47 808.299 697.05C807.891 696.618 807.687 696.084 807.687 695.448C807.687 694.632 808.011 693.972 808.659 693.468C809.319 692.964 810.189 692.712 811.269 692.712C811.917 692.712 812.529 692.814 813.105 693.018C813.693 693.222 814.191 693.51 814.599 693.882L814.041 695.16C813.165 694.464 812.241 694.116 811.269 694.116C810.681 694.116 810.225 694.23 809.901 694.458C809.577 694.674 809.415 694.98 809.415 695.376C809.415 695.688 809.517 695.94 809.721 696.132C809.925 696.324 810.249 696.474 810.693 696.582L812.241 696.96C813.105 697.152 813.741 697.458 814.149 697.878C814.569 698.286 814.779 698.82 814.779 699.48C814.779 700.296 814.449 700.944 813.789 701.424C813.141 701.892 812.253 702.126 811.125 702.126ZM824.662 697.5H818.182C818.242 699.624 819.208 700.686 821.08 700.686C822.124 700.686 823.078 700.344 823.942 699.66L824.5 700.956C824.092 701.316 823.57 701.604 822.934 701.82C822.31 702.024 821.68 702.126 821.044 702.126C819.592 702.126 818.452 701.712 817.624 700.884C816.796 700.044 816.382 698.898 816.382 697.446C816.382 696.522 816.562 695.7 816.922 694.98C817.294 694.26 817.81 693.702 818.47 693.306C819.13 692.91 819.88 692.712 820.72 692.712C821.944 692.712 822.904 693.108 823.6 693.9C824.308 694.692 824.662 695.79 824.662 697.194V697.5ZM820.756 694.062C820.072 694.062 819.514 694.266 819.082 694.674C818.65 695.082 818.374 695.664 818.254 696.42H823.06C822.988 695.652 822.754 695.07 822.358 694.674C821.962 694.266 821.428 694.062 820.756 694.062ZM835.489 702.126C834.577 702.126 833.779 701.934 833.095 701.55C832.423 701.166 831.907 700.626 831.547 699.93C831.187 699.222 831.007 698.4 831.007 697.464C831.007 696.528 831.193 695.7 831.565 694.98C831.949 694.26 832.483 693.702 833.167 693.306C833.851 692.91 834.649 692.712 835.561 692.712C836.197 692.712 836.809 692.82 837.397 693.036C837.985 693.24 838.459 693.522 838.819 693.882L838.261 695.196C837.409 694.524 836.551 694.188 835.687 694.188C834.811 694.188 834.127 694.476 833.635 695.052C833.143 695.616 832.897 696.414 832.897 697.446C832.897 698.478 833.143 699.276 833.635 699.84C834.127 700.392 834.811 700.668 835.687 700.668C836.575 700.668 837.433 700.332 838.261 699.66L838.819 700.974C838.435 701.334 837.943 701.616 837.343 701.82C836.755 702.024 836.137 702.126 835.489 702.126ZM848.827 692.928V702H847.027V700.452C846.763 700.992 846.367 701.406 845.839 701.694C845.323 701.982 844.717 702.126 844.021 702.126C843.217 702.126 842.509 701.934 841.897 701.55C841.297 701.166 840.829 700.626 840.493 699.93C840.157 699.222 839.989 698.4 839.989 697.464C839.989 696.528 840.157 695.7 840.493 694.98C840.841 694.26 841.321 693.702 841.933 693.306C842.545 692.91 843.241 692.712 844.021 692.712C844.717 692.712 845.323 692.862 845.839 693.162C846.355 693.45 846.751 693.864 847.027 694.404V692.928H848.827ZM844.453 700.686C845.269 700.686 845.899 700.404 846.343 699.84C846.799 699.264 847.027 698.46 847.027 697.428C847.027 696.384 846.799 695.58 846.343 695.016C845.899 694.452 845.263 694.17 844.435 694.17C843.619 694.17 842.977 694.464 842.509 695.052C842.053 695.628 841.825 696.432 841.825 697.464C841.825 698.484 842.053 699.276 842.509 699.84C842.977 700.404 843.625 700.686 844.453 700.686ZM854.666 702.126C853.082 702.126 851.834 701.742 850.922 700.974L851.462 699.66C852.41 700.38 853.496 700.74 854.72 700.74C855.344 700.74 855.818 700.638 856.142 700.434C856.466 700.218 856.628 699.918 856.628 699.534C856.628 699.21 856.514 698.958 856.286 698.778C856.07 698.586 855.698 698.424 855.17 698.292L853.658 697.932C852.866 697.764 852.26 697.47 851.84 697.05C851.432 696.618 851.228 696.084 851.228 695.448C851.228 694.632 851.552 693.972 852.2 693.468C852.86 692.964 853.73 692.712 854.81 692.712C855.458 692.712 856.07 692.814 856.646 693.018C857.234 693.222 857.732 693.51 858.14 693.882L857.582 695.16C856.706 694.464 855.782 694.116 854.81 694.116C854.222 694.116 853.766 694.23 853.442 694.458C853.118 694.674 852.956 694.98 852.956 695.376C852.956 695.688 853.058 695.94 853.262 696.132C853.466 696.324 853.79 696.474 854.234 696.582L855.782 696.96C856.646 697.152 857.282 697.458 857.69 697.878C858.11 698.286 858.32 698.82 858.32 699.48C858.32 700.296 857.99 700.944 857.33 701.424C856.682 701.892 855.794 702.126 854.666 702.126ZM868.203 697.5H861.723C861.783 699.624 862.749 700.686 864.621 700.686C865.665 700.686 866.619 700.344 867.483 699.66L868.041 700.956C867.633 701.316 867.111 701.604 866.475 701.82C865.851 702.024 865.221 702.126 864.585 702.126C863.133 702.126 861.993 701.712 861.165 700.884C860.337 700.044 859.923 698.898 859.923 697.446C859.923 696.522 860.103 695.7 860.463 694.98C860.835 694.26 861.351 693.702 862.011 693.306C862.671 692.91 863.421 692.712 864.261 692.712C865.485 692.712 866.445 693.108 867.141 693.9C867.849 694.692 868.203 695.79 868.203 697.194V697.5ZM864.297 694.062C863.613 694.062 863.055 694.266 862.623 694.674C862.191 695.082 861.915 695.664 861.795 696.42H866.601C866.529 695.652 866.295 695.07 865.899 694.674C865.503 694.266 864.969 694.062 864.297 694.062ZM873.457 702.126C871.873 702.126 870.625 701.742 869.713 700.974L870.253 699.66C871.201 700.38 872.287 700.74 873.511 700.74C874.135 700.74 874.609 700.638 874.933 700.434C875.257 700.218 875.419 699.918 875.419 699.534C875.419 699.21 875.305 698.958 875.077 698.778C874.861 698.586 874.489 698.424 873.961 698.292L872.449 697.932C871.657 697.764 871.051 697.47 870.631 697.05C870.223 696.618 870.019 696.084 870.019 695.448C870.019 694.632 870.343 693.972 870.991 693.468C871.651 692.964 872.521 692.712 873.601 692.712C874.249 692.712 874.861 692.814 875.437 693.018C876.025 693.222 876.523 693.51 876.931 693.882L876.373 695.16C875.497 694.464 874.573 694.116 873.601 694.116C873.013 694.116 872.557 694.23 872.233 694.458C871.909 694.674 871.747 694.98 871.747 695.376C871.747 695.688 871.849 695.94 872.053 696.132C872.257 696.324 872.581 696.474 873.025 696.582L874.573 696.96C875.437 697.152 876.073 697.458 876.481 697.878C876.901 698.286 877.111 698.82 877.111 699.48C877.111 700.296 876.781 700.944 876.121 701.424C875.473 701.892 874.585 702.126 873.457 702.126Z" fill="#2673DD"/>
<rect x="785.5" y="577.5" width="104" height="94" stroke="#2673DD" stroke-dasharray="4 4"/>
<path d="M814 609C814 608.135 814.11 607.297 814.316 606.496C814.868 606.525 815.418 606.401 815.904 606.137C816.391 605.873 816.794 605.48 817.071 605.001C817.348 604.522 817.487 603.976 817.472 603.422C817.458 602.869 817.291 602.331 816.99 601.867C818.199 600.678 819.691 599.816 821.325 599.362C821.576 599.856 821.959 600.27 822.431 600.559C822.903 600.849 823.445 601.002 823.999 601.002C824.553 601.002 825.095 600.849 825.567 600.559C826.039 600.27 826.422 599.856 826.673 599.362C828.307 599.816 829.799 600.678 831.008 601.867C830.706 602.331 830.539 602.87 830.525 603.423C830.51 603.976 830.649 604.523 830.926 605.002C831.203 605.481 831.607 605.875 832.094 606.138C832.58 606.402 833.13 606.526 833.683 606.497C833.889 607.297 833.999 608.135 833.999 609C833.999 609.865 833.889 610.703 833.683 611.504C833.13 611.475 832.581 611.599 832.094 611.863C831.608 612.127 831.204 612.52 830.927 612.999C830.65 613.478 830.511 614.024 830.525 614.577C830.54 615.131 830.707 615.669 831.008 616.133C829.799 617.322 828.307 618.185 826.673 618.638C826.422 618.145 826.039 617.73 825.567 617.441C825.095 617.151 824.553 616.998 823.999 616.998C823.445 616.998 822.903 617.151 822.431 617.441C821.959 617.73 821.576 618.145 821.325 618.638C819.691 618.185 818.199 617.322 816.99 616.133C817.292 615.669 817.459 615.13 817.473 614.577C817.488 614.024 817.349 613.477 817.072 612.998C816.795 612.519 816.391 612.125 815.904 611.862C815.418 611.598 814.868 611.474 814.315 611.503C814.11 610.704 814 609.866 814 609ZM818.804 612C819.434 613.091 819.614 614.346 819.368 615.524C819.776 615.814 820.21 616.065 820.665 616.274C821.582 615.453 822.769 614.999 824 615C825.26 615 826.438 615.471 827.335 616.274C827.79 616.065 828.224 615.814 828.632 615.524C828.379 614.32 828.58 613.065 829.196 612C829.811 610.934 830.797 610.133 831.966 609.75C832.012 609.251 832.012 608.749 831.966 608.25C830.797 607.867 829.81 607.066 829.195 606C828.579 604.935 828.378 603.68 828.631 602.476C828.223 602.186 827.789 601.935 827.334 601.726C826.418 602.547 825.23 603.001 824 603C822.769 603.001 821.582 602.547 820.665 601.726C820.21 601.935 819.776 602.186 819.368 602.476C819.621 603.68 819.42 604.935 818.804 606C818.189 607.066 817.203 607.867 816.034 608.25C815.988 608.749 815.988 609.251 816.034 609.75C817.203 610.133 818.19 610.934 818.805 612H818.804ZM824 612C823.204 612 822.441 611.684 821.879 611.121C821.316 610.559 821 609.796 821 609C821 608.204 821.316 607.441 821.879 606.879C822.441 606.316 823.204 606 824 606C824.796 606 825.559 606.316 826.121 606.879C826.684 607.441 827 608.204 827 609C827 609.796 826.684 610.559 826.121 611.121C825.559 611.684 824.796 612 824 612ZM824 610C824.265 610 824.52 609.895 824.707 609.707C824.895 609.52 825 609.265 825 609C825 608.735 824.895 608.48 824.707 608.293C824.52 608.105 824.265 608 824 608C823.735 608 823.48 608.105 823.293 608.293C823.105 608.48 823 608.735 823 609C823 609.265 823.105 609.52 823.293 609.707C823.48 609.895 823.735 610 824 610Z" fill="#2673DD"/>
<path d="M811 637C811 635.702 811.165 634.445 811.474 633.244C812.303 633.288 813.127 633.101 813.857 632.705C814.586 632.309 815.192 631.72 815.607 631.001C816.022 630.283 816.23 629.463 816.209 628.634C816.187 627.804 815.937 626.997 815.485 626.3C817.298 624.516 819.536 623.223 821.987 622.543C822.364 623.283 822.938 623.905 823.646 624.339C824.354 624.773 825.168 625.003 825.998 625.003C826.829 625.003 827.643 624.773 828.351 624.339C829.059 623.905 829.633 623.283 830.01 622.543C832.461 623.223 834.699 624.516 836.512 626.3C836.06 626.997 835.809 627.804 835.787 628.634C835.766 629.464 835.974 630.284 836.389 631.003C836.805 631.722 837.411 632.312 838.141 632.708C838.87 633.103 839.695 633.29 840.525 633.245C840.833 634.445 840.999 635.702 840.999 637C840.999 638.297 840.833 639.554 840.525 640.756C839.696 640.712 838.871 640.898 838.141 641.294C837.412 641.69 836.806 642.28 836.391 642.998C835.975 643.717 835.767 644.536 835.788 645.366C835.81 646.196 836.06 647.003 836.512 647.699C834.699 649.484 832.461 650.777 830.01 651.457C829.633 650.717 829.059 650.095 828.351 649.661C827.643 649.227 826.829 648.997 825.998 648.997C825.168 648.997 824.354 649.227 823.646 649.661C822.938 650.095 822.364 650.717 821.987 651.457C819.536 650.777 817.298 649.484 815.485 647.699C815.937 647.003 816.188 646.195 816.21 645.366C816.231 644.536 816.023 643.716 815.608 642.997C815.192 642.278 814.586 641.688 813.856 641.292C813.127 640.897 812.302 640.71 811.473 640.754C811.165 639.556 811 638.299 811 637ZM818.206 641.5C819.151 643.136 819.421 645.019 819.052 646.786C819.664 647.221 820.315 647.597 820.997 647.911C822.373 646.679 824.154 645.999 826 646C827.89 646 829.657 646.706 831.003 647.911C831.685 647.597 832.336 647.221 832.948 646.786C832.569 644.98 832.87 643.098 833.794 641.5C834.716 639.902 836.196 638.7 837.949 638.125C838.018 637.377 838.018 636.623 837.949 635.875C836.195 635.301 834.715 634.099 833.792 632.5C832.869 630.902 832.568 629.02 832.947 627.214C832.335 626.779 831.683 626.402 831.001 626.089C829.626 627.32 827.846 628.001 826 628C824.154 628.001 822.373 627.321 820.997 626.089C820.315 626.402 819.664 626.779 819.052 627.214C819.431 629.02 819.13 630.902 818.206 632.5C817.284 634.098 815.804 635.3 814.051 635.875C813.982 636.623 813.982 637.377 814.051 638.125C815.805 638.699 817.285 639.901 818.207 641.5H818.206ZM826 641.5C824.807 641.5 823.662 641.026 822.818 640.182C821.974 639.338 821.5 638.193 821.5 637C821.5 635.806 821.974 634.662 822.818 633.818C823.662 632.974 824.807 632.5 826 632.5C827.193 632.5 828.338 632.974 829.182 633.818C830.026 634.662 830.5 635.806 830.5 637C830.5 638.193 830.026 639.338 829.182 640.182C828.338 641.026 827.193 641.5 826 641.5ZM826 638.5C826.398 638.5 826.779 638.342 827.061 638.061C827.342 637.779 827.5 637.398 827.5 637C827.5 636.602 827.342 636.221 827.061 635.939C826.779 635.658 826.398 635.5 826 635.5C825.602 635.5 825.221 635.658 824.939 635.939C824.658 636.221 824.5 636.602 824.5 637C824.5 637.398 824.658 637.779 824.939 638.061C825.221 638.342 825.602 638.5 826 638.5Z" fill="#2673DD"/>
<path d="M836.667 613C836.667 611.847 836.813 610.729 837.088 609.661C837.825 609.7 838.558 609.534 839.206 609.183C839.854 608.831 840.393 608.306 840.762 607.668C841.131 607.029 841.316 606.301 841.297 605.563C841.278 604.826 841.055 604.108 840.653 603.489C842.265 601.904 844.254 600.754 846.433 600.149C846.768 600.807 847.278 601.36 847.907 601.746C848.537 602.132 849.261 602.336 849.999 602.336C850.737 602.336 851.461 602.132 852.09 601.746C852.719 601.36 853.229 600.807 853.564 600.149C855.743 600.754 857.732 601.904 859.344 603.489C858.942 604.108 858.719 604.826 858.7 605.564C858.681 606.302 858.866 607.03 859.235 607.669C859.604 608.308 860.143 608.833 860.792 609.185C861.44 609.536 862.174 609.702 862.911 609.663C863.185 610.729 863.332 611.847 863.332 613C863.332 614.153 863.185 615.271 862.911 616.339C862.174 616.3 861.441 616.465 860.792 616.817C860.144 617.169 859.605 617.693 859.236 618.332C858.867 618.971 858.682 619.699 858.701 620.436C858.72 621.174 858.942 621.892 859.344 622.511C857.732 624.097 855.743 625.246 853.564 625.851C853.229 625.193 852.719 624.64 852.09 624.254C851.461 623.868 850.737 623.664 849.999 623.664C849.261 623.664 848.537 623.868 847.907 624.254C847.278 624.64 846.768 625.193 846.433 625.851C844.254 625.246 842.265 624.097 840.653 622.511C841.055 621.892 841.278 621.174 841.298 620.436C841.317 619.698 841.132 618.97 840.762 618.331C840.393 617.692 839.854 617.167 839.206 616.816C838.557 616.464 837.824 616.298 837.087 616.337C836.813 615.272 836.667 614.155 836.667 613ZM843.072 617C843.912 618.455 844.152 620.128 843.824 621.699C844.368 622.085 844.947 622.42 845.553 622.699C846.776 621.604 848.359 620.999 850 621C851.68 621 853.251 621.628 854.447 622.699C855.053 622.42 855.632 622.085 856.176 621.699C855.839 620.093 856.107 618.42 856.928 617C857.748 615.579 859.063 614.511 860.621 614C860.683 613.335 860.683 612.665 860.621 612C859.062 611.489 857.747 610.421 856.927 609C856.106 607.58 855.838 605.907 856.175 604.301C855.631 603.915 855.052 603.58 854.445 603.301C853.223 604.396 851.64 605.001 850 605C848.359 605.001 846.776 604.396 845.553 603.301C844.947 603.58 844.368 603.915 843.824 604.301C844.161 605.907 843.893 607.58 843.072 609C842.253 610.421 840.937 611.489 839.379 612C839.317 612.665 839.317 613.335 839.379 614C840.938 614.511 842.254 615.579 843.073 617H843.072ZM850 617C848.939 617 847.922 616.579 847.172 615.829C846.421 615.078 846 614.061 846 613C846 611.939 846.421 610.922 847.172 610.172C847.922 609.422 848.939 609 850 609C851.061 609 852.078 609.422 852.828 610.172C853.579 610.922 854 611.939 854 613C854 614.061 853.579 615.078 852.828 615.829C852.078 616.579 851.061 617 850 617ZM850 614.333C850.354 614.333 850.693 614.193 850.943 613.943C851.193 613.693 851.333 613.354 851.333 613C851.333 612.646 851.193 612.307 850.943 612.057C850.693 611.807 850.354 611.667 850 611.667C849.646 611.667 849.307 611.807 849.057 612.057C848.807 612.307 848.667 612.646 848.667 613C848.667 613.354 848.807 613.693 849.057 613.943C849.307 614.193 849.646 614.333 850 614.333Z" fill="#2673DD"/>
<defs>
<filter id="filter0_d" x="470" y="401" width="599" height="405" filterUnits="userSpaceOnUse" color-interpolation-filters="sRGB">
<feFlood flood-opacity="0" result="BackgroundImageFix"/>
<feColorMatrix in="SourceAlpha" type="matrix" values="0 0 0 0 0 0 0 0 0 0 0 0 0 0 0 0 0 0 127 0" result="hardAlpha"/>
<feOffset dy="8"/>
<feGaussianBlur stdDeviation="4"/>
<feComposite in2="hardAlpha" operator="out"/>
<feColorMatrix type="matrix" values="0 0 0 0 0 0 0 0 0 0 0 0 0 0 0 0 0 0 0.05 0"/>
<feBlend mode="normal" in2="BackgroundImageFix" result="effect1_dropShadow"/>
<feBlend mode="normal" in="SourceGraphic" in2="effect1_dropShadow" result="shape"/>
</filter>
<filter id="filter1_d" x="450" y="378" width="599" height="405" filterUnits="userSpaceOnUse" color-interpolation-filters="sRGB">
<feFlood flood-opacity="0" result="BackgroundImageFix"/>
<feColorMatrix in="SourceAlpha" type="matrix" values="0 0 0 0 0 0 0 0 0 0 0 0 0 0 0 0 0 0 127 0" result="hardAlpha"/>
<feOffset dy="8"/>
<feGaussianBlur stdDeviation="4"/>
<feComposite in2="hardAlpha" operator="out"/>
<feColorMatrix type="matrix" values="0 0 0 0 0 0 0 0 0 0 0 0 0 0 0 0 0 0 0.05 0"/>
<feBlend mode="normal" in2="BackgroundImageFix" result="effect1_dropShadow"/>
<feBlend mode="normal" in="SourceGraphic" in2="effect1_dropShadow" result="shape"/>
</filter>
<filter id="filter2_d" x="430" y="358" width="599" height="405" filterUnits="userSpaceOnUse" color-interpolation-filters="sRGB">
<feFlood flood-opacity="0" result="BackgroundImageFix"/>
<feColorMatrix in="SourceAlpha" type="matrix" values="0 0 0 0 0 0 0 0 0 0 0 0 0 0 0 0 0 0 127 0" result="hardAlpha"/>
<feOffset dy="8"/>
<feGaussianBlur stdDeviation="4"/>
<feComposite in2="hardAlpha" operator="out"/>
<feColorMatrix type="matrix" values="0 0 0 0 0 0 0 0 0 0 0 0 0 0 0 0 0 0 0.05 0"/>
<feBlend mode="normal" in2="BackgroundImageFix" result="effect1_dropShadow"/>
<feBlend mode="normal" in="SourceGraphic" in2="effect1_dropShadow" result="shape"/>
</filter>
</defs>
</svg>
