<svg width="423" height="423" viewBox="0 0 423 423" fill="none" xmlns="http://www.w3.org/2000/svg">
<rect width="423" height="423" fill="url(#paint0_linear_105_318)"/>
<path d="M148.126 216.983C148.126 215.43 147.669 214.242 146.755 213.42C145.842 212.579 144.198 211.702 141.822 210.789C139.447 209.857 137.567 208.943 136.181 208.048C132.405 205.6 130.518 202.302 130.518 198.154C130.518 195.998 131.02 194.08 132.025 192.399C133.045 190.7 134.499 189.375 136.387 188.425C138.29 187.475 140.422 187 142.782 187C145.157 187 147.273 187.521 149.131 188.562C150.988 189.585 152.427 191.038 153.447 192.92C153.98 193.902 153.98 194.838 153.98 194.838L148.367 197.488C147.347 195.581 147.669 196.09 146.71 195.085C145.751 194.062 144.403 193.55 142.667 193.55C140.993 193.55 139.691 193.98 138.762 194.838C137.833 195.679 137.369 196.793 137.369 198.182C137.369 199.479 137.909 200.566 138.99 201.443C140.087 202.32 141.693 203.142 143.809 203.91C147.707 205.317 150.547 207.061 152.328 209.144C154.109 211.227 155 213.822 155 216.928C155 220.381 153.911 223.094 151.734 225.068C149.557 227.023 146.626 228 142.941 228C140.384 228 138.054 227.443 135.953 226.328C133.852 225.195 132.246 223.652 131.134 221.697C130.038 219.742 130.518 220.849 130 217.988L135.953 215.128C135.953 219.531 138.557 221.505 142.941 221.505C144.571 221.505 145.842 221.112 146.755 220.326C147.669 219.522 148.126 218.408 148.126 216.983Z" fill="white"/>
<path fill-rule="evenodd" clip-rule="evenodd" d="M278 228C289.046 228 298 219.046 298 208C298 196.954 289.046 188 278 188C266.955 188 258 196.954 258 208C258 219.046 266.955 228 278 228ZM278 220.889C285.119 220.889 290.889 215.118 290.889 208C290.889 200.882 285.119 195.111 278 195.111C270.882 195.111 265.112 200.882 265.112 208C265.112 215.118 270.882 220.889 278 220.889Z" fill="white"/>
<rect x="173" y="205" width="8" height="23" fill="white"/>
<rect x="199" y="188" width="8" height="40" fill="white"/>
<rect x="225" y="188" width="8" height="40" fill="white"/>
<rect x="243" y="188" width="8" height="40" fill="white"/>
<rect x="305" y="188" width="8" height="40" fill="white"/>
<rect x="330" y="188" width="8" height="40" fill="white"/>
<rect x="306" y="192.517" width="8" height="42.9949" transform="rotate(-34.3735 306 192.517)" fill="white"/>
<rect x="200" y="192.517" width="8" height="42.9949" transform="rotate(-34.3735 200 192.517)" fill="white"/>
<path d="M159 187L168.604 187L180.626 204.576L174.023 209.093L159 187Z" fill="white"/>
<path d="M193.626 187.475L184.023 187.475L172 205.051L178.603 209.568L193.626 187.475Z" fill="white"/>
<path d="M68.4983 176.814C73.2996 181.616 81.0843 181.615 85.8855 176.814C91.6106 171.218 89.5318 163.814 101.1 160.607V160.607C104.546 159.684 108.037 160.001 111.098 161.283C108.992 158.796 106.429 156.622 103.443 154.898C91.8206 148.188 77.4988 150.418 68.4696 159.457C63.6981 164.261 63.707 172.023 68.4983 176.814" fill="white"/>
<path d="M101.936 163.728C95.3774 165.485 91.4855 172.227 93.2425 178.785V178.786C95.226 186.542 102.678 188.444 99.671 200.065H99.6712C98.744 203.525 96.7105 206.4 94.0534 208.411C102.19 206.987 109.653 202.116 114.098 194.417C118.353 187.047 118.982 178.576 116.54 171.059C114.272 165.337 108.026 162.096 101.936 163.728" fill="white"/>
<path d="M96.5505 199.229C98.308 192.67 94.4152 185.929 87.8568 184.171C80.148 182.011 74.7749 187.514 66.2141 179.099C63.6486 176.533 62.1747 173.286 61.7838 169.934C57.026 182.889 62.1499 197.792 74.5466 204.949C77.3253 206.553 80.2586 207.645 83.2367 208.257C89.2067 208.967 94.9487 205.207 96.5505 199.229" fill="white"/>
<defs>
<linearGradient id="paint0_linear_105_318" x1="0" y1="0" x2="423" y2="423" gradientUnits="userSpaceOnUse">
<stop stop-color="#CC1F1B"/>
<stop offset="1" stop-color="#7B0D08"/>
</linearGradient>
</defs>
</svg>
