<svg class="synion-footer-logo" viewBox="-10 -10 340 340" xmlns="http://www.w3.org/2000/svg">
    <g>
        <path fill="#a80c0d" d="M47.196 143.826c26.751 26.751 70.124 26.749 96.874 0 31.898-31.177 20.316-72.434 84.768-90.298v-.001c19.2-5.144 38.65-3.375 55.704 3.768-11.734-13.858-26.013-25.971-42.65-35.575-64.754-37.388-144.549-24.96-194.856 25.4-26.585 26.764-26.535 70.011.16 96.706"></path>
        <path fill="#a80c0d" d="M233.498 70.914c-36.543 9.791-58.227 47.355-48.438 83.895v.001c11.051 43.213 52.573 53.811 35.817 118.56h.001c-5.166 19.28-16.496 35.294-31.3 46.498 45.331-7.931 86.915-35.072 111.68-77.966 23.709-41.064 27.212-88.262 13.607-130.139-12.64-31.881-47.435-49.94-81.367-40.849"></path>
        <path fill="#a80c0d" d="M203.491 268.713c9.792-36.543-11.897-74.104-48.438-83.896-42.95-12.037-72.887 18.624-120.584-28.262-14.294-14.294-22.506-32.389-24.684-51.061-26.508 72.18 2.04 155.209 71.109 195.086 15.482 8.939 31.825 15.024 48.418 18.43 33.262 3.959 65.254-16.993 74.179-50.297"></path>
    </g>
</svg>